<?xml version="1.0" encoding="UTF-8" standalone="no"?>
<svg
   width="100%"
   height="100%"
   viewBox="0 0 1334 1334"
   version="1.1"
   xml:space="preserve"
   style="fill-rule:evenodd;clip-rule:evenodd;stroke-linejoin:round;stroke-miterlimit:2;"
   id="svg3"
   sodipodi:docname="cs-flat.svg"
   inkscape:version="1.4 (86a8ad7, 2024-10-11)"
   xmlns:inkscape="http://www.inkscape.org/namespaces/inkscape"
   xmlns:sodipodi="http://sodipodi.sourceforge.net/DTD/sodipodi-0.dtd"
   xmlns="http://www.w3.org/2000/svg"
   xmlns:svg="http://www.w3.org/2000/svg"><defs
   id="defs3" /><sodipodi:namedview
   id="namedview3"
   pagecolor="#ffffff"
   bordercolor="#111111"
   borderopacity="1"
   inkscape:showpageshadow="0"
   inkscape:pageopacity="0"
   inkscape:pagecheckerboard="1"
   inkscape:deskcolor="#d1d1d1"
   inkscape:zoom="0.54"
   inkscape:cx="658.33333"
   inkscape:cy="695.37037"
   inkscape:window-width="1920"
   inkscape:window-height="1017"
   inkscape:window-x="-8"
   inkscape:window-y="-8"
   inkscape:window-maximized="1"
   inkscape:current-layer="svg3" />
    
    
    <path
   d="M552.47,623.628C552.47,623.628 556.168,621.362 556.547,617.096C556.91,612.997 555.776,604.988 552.436,602.302C549.458,599.908 544.309,598.199 539.194,598.671C535.733,598.99 532.232,599.333 528.667,599.333C526.71,599.333 525.005,599.256 523.084,599.262C520.837,599.27 519.836,600.526 519.467,601.673C519.098,602.821 519.904,605.06 521.245,606.372C522.888,607.981 525.197,610.031 527.517,612.946C529.925,615.97 532.12,618.898 532.14,619.13C532.208,619.882 527.437,616.106 527.437,616.106C527.437,616.106 527.746,619.099 526.505,621.054C524.651,623.977 522.312,628.985 521.475,630.864C517.662,639.433 517.871,644.433 518.979,649.461C519.964,653.927 522.78,659.117 524.793,663.309C527.128,668.171 530.39,677.942 530.39,677.942C530.39,677.942 537.326,661.699 538.6,653.834C539.576,647.812 539.633,645.646 539.633,645.646L540.677,645.463C540.677,645.463 539.639,653.002 540.578,653.191C542.496,653.575 543.291,642.666 543.291,642.666L544.414,641.933C544.414,641.933 544.944,647.597 546.662,640.246C547.492,636.693 545.899,634.842 545.899,634.842L546.772,633.763C546.772,633.763 549.477,638.134 549.079,642.194C548.949,643.523 548.333,649.463 548.333,649.463L551.635,646.359L549.517,649.781C549.517,649.781 551.599,648.973 552.306,648.926C552.947,648.884 553.76,649.501 553.76,649.501C553.76,649.501 546.159,653.314 543.772,656.637C540.819,660.747 537.835,667.701 536.045,674.161C533.228,684.326 531.629,693.068 531.617,694.33C531.603,695.826 531.537,697.232 531.427,698.529C531.185,701.394 530.299,708.066 530.299,708.066L529.161,706.879C529.161,706.879 529.686,703.032 528.87,702.365C527.945,701.608 527.632,703.158 527.632,703.158L526.558,703.196C526.558,703.196 526.825,696.462 527.566,692.139C528.937,684.141 525.785,672.481 516.637,658.074C511.721,650.333 498.679,635.9 498.679,635.9C498.679,635.9 500.336,639.169 501.104,642.577C501.955,646.348 501.902,650.271 501.377,649.746C500.948,649.317 499.898,641.981 497.94,638.321C496.479,635.591 495.502,632.149 488.817,626.609C471.536,612.29 462.279,601.349 461.267,597.349C461.242,597.249 461.006,599.994 461.023,601.536C461.042,603.355 461.974,607.362 461.511,607.885C461.124,608.322 459.679,603.291 459.573,600.415C459.446,596.965 459.816,591.381 460.626,587.563C462.058,580.812 463.858,578.474 462.594,571.774C461.468,565.806 457.8,559.623 456.463,557.272C457.311,555.781 459.359,539.625 463.252,530.403C463.971,528.701 468.01,518.261 468.435,511.861C468.795,506.448 468.904,501.486 468.775,497.026C468.761,496.551 468.744,496.082 468.725,495.618C468.599,492.57 469.334,486.179 469.334,486.179C469.334,486.179 469.622,488.925 470.383,492.036C470.484,492.45 470.434,495.717 470.434,495.717L471.623,494.684L473.007,497.676L472.346,503.833L475.324,501.482L478.373,505.291L475.786,509.517L479.736,507.361L480.544,509.265C480.544,509.265 473.275,515.11 469.216,526.746C463.864,542.093 468.626,540.839 470.914,538.62C473.051,536.549 498.317,516.276 508.561,480.887C511.449,470.908 508.708,462.356 511.341,451.441C511.453,450.974 511.694,449.988 511.694,449.988C511.694,449.988 491.641,474.321 490.059,492.123C489.785,495.212 490.479,499.332 490.479,499.332L486.794,504.157C486.794,504.157 487.737,494.391 485.8,494.192C483.134,493.918 482.991,503.702 482.991,503.702C482.991,503.702 480.572,500.251 481.476,491.358C481.526,490.866 485.308,484.704 485.308,484.704L481.334,487.071L480.831,484.081L485.627,480.02L480.37,481.349L480.084,479.646C480.084,479.646 486.42,477.818 490.638,473.05C494.215,469.007 500.305,458.733 503.532,453.44C507.2,447.424 513.992,438.091 515.827,433.4C520.51,421.426 522.034,411.848 522.387,405.156C522.633,400.471 522.841,390.155 522.841,390.155L524.06,391.804C524.06,391.804 524.099,398.582 524.327,399.216C524.554,399.85 525.296,398.515 525.652,396.881C525.846,395.988 526.983,395.55 526.983,395.55C526.983,395.55 527.326,402.411 527.421,406.356C527.747,419.948 532.608,432.839 534.938,440.012C537.843,448.952 539.331,450.997 542.493,455.205C545.553,459.277 550.511,462.864 553.907,465.257C556.596,467.151 563.116,468.873 562.778,469.56C562.463,470.2 558.679,468.901 556.929,468.224C555.384,467.627 552.568,466.043 552.568,466.043C552.568,466.043 552.693,466.151 553.359,466.967C557.25,471.731 561.151,483.759 568.285,495.569C576.069,508.454 581.242,514.67 586.022,518.477C591.249,522.64 594.111,526.668 596.455,529.196C599.979,532.994 602.057,539.767 601.461,541.399C600.966,542.753 599.298,538.027 599.298,538.027C599.298,538.027 599.021,543.695 599.014,545.005C598.992,549.36 600.146,555.997 600.87,557.272C594.662,568.19 584.903,577.608 579.575,585.62C576.298,590.549 567.965,609.747 566.345,617.072C565.873,619.211 564.923,624.098 566.511,630.493C568.181,637.219 574.437,640.228 574.437,640.228C574.437,640.228 572.433,640.93 570.921,640.093C568.904,638.977 566.9,636.024 566.9,636.024C566.9,636.024 567.696,640.119 568.128,641.981C568.766,644.735 567.846,648.158 566.372,649.7C564.938,651.2 562.829,652.522 562.829,652.522L561.643,649.09C561.643,649.09 563.311,648.26 564.155,645.829C565.255,642.66 565.366,638.457 564.636,634.78C563.706,630.098 563.765,623.129 563.765,623.129C563.765,623.129 562.258,626.889 562.408,629.492C562.464,630.471 562.793,638.996 562.793,638.996L561.1,637.111C561.1,637.111 560.901,632.539 560.378,631.956C559.886,631.408 558.963,632.806 558.963,632.806L558.414,631.278C558.414,631.278 560.183,623.572 559.815,623.212C559.556,622.958 556.899,630.3 556.899,630.3L555.863,629.773C555.863,629.773 556.981,627.49 556.624,627.092C556.299,626.73 553.654,628.816 553.654,628.816L552.47,627.497C552.47,627.497 554.093,625.892 554.093,625.247C554.093,624.602 552.47,623.628 552.47,623.628ZM545.095,461.382C545.095,461.382 548.384,467.764 550.454,470.766C552.794,474.159 558.668,481.227 558.668,481.227C558.668,481.227 556.024,473.13 553.684,469.736C551.359,466.366 545.095,461.382 545.095,461.382ZM528.667,520.702C508.828,520.702 492.721,536.809 492.721,556.648C492.721,576.487 508.828,592.593 528.667,592.593C548.506,592.593 564.613,576.487 564.613,556.648C564.613,536.809 548.506,520.702 528.667,520.702ZM564.972,607.524C564.972,607.524 568.586,598.714 569.922,593.669C571.893,586.223 568.774,589.008 568.08,589.383C564.952,591.076 563.874,595.162 563.974,596.603C564.234,600.337 564.972,607.524 564.972,607.524ZM518.161,487.303C518.161,487.303 520.739,495.031 517.772,500.005C515.982,503.007 513.057,504.543 506.632,506.752C503.068,507.978 502.044,512.195 501.886,512.744C500.068,519.082 502.858,518.769 505.323,518.18C506.01,518.016 512.702,515.998 515.953,515.752C520.316,515.421 527.879,514.707 528.338,508.518C529.19,497.012 518.161,487.303 518.161,487.303ZM512.578,482.355C512.578,482.355 510.038,492.389 508.185,495.948C506.658,498.88 504.394,504.995 504.394,504.995C504.394,504.995 506.176,503.983 508.909,503.537C512.421,502.965 516.539,499.863 516.977,497.065C518.651,486.381 512.578,482.355 512.578,482.355ZM503.453,625.223C499.82,623.334 492.179,621.963 492.179,621.963C492.179,621.963 493.196,622.859 493.67,623.281C495.639,625.035 497.125,626.506 497.661,627.061C503.351,632.963 508.894,639.426 513.642,645.728C514.089,643.854 515.211,639.249 513.662,634.933C512.374,631.341 506.605,626.862 503.453,625.223ZM505.938,599.164C501.522,595.756 494.689,591.965 489.569,589.35C488.166,588.634 487.002,588.886 486.176,589.489C485.232,590.178 484.52,591.916 483.907,593.483C483.494,594.537 481.634,600.032 481.317,605.03C481.104,608.382 481.177,610.044 482.534,612.33C483.406,613.797 489.412,617.102 493.961,617.587C500.376,618.27 507.758,622.963 510.248,624.802C512.451,626.429 517.23,631.338 517.23,631.338C517.23,631.338 517.776,630.261 518.623,628.809C519.528,627.258 520.976,625.473 521.912,623.53C523.531,620.168 524.152,617.695 523.759,616.061C522.834,612.213 511.724,603.628 505.938,599.164ZM480.599,597.227C482.34,593.235 484.358,586.612 481.742,584.531C479.467,582.722 476.48,580.848 474.065,578.825C469.217,574.763 465.415,586.189 465.592,592.449C465.708,596.557 468.692,600.952 474.637,606.644C476.266,608.204 477.432,609.001 479.206,610.538C479.623,608.965 479.066,600.743 480.599,597.227ZM581.726,522.328C581.726,522.328 584.018,533.761 585.939,536.955C587.592,539.705 594.176,547.041 594.176,547.041C594.176,547.041 594.869,537.569 593.287,534.427C590.78,529.449 581.726,522.328 581.726,522.328ZM523.695,477.257C534.434,483.252 539.318,489.358 542.208,492.919C543.159,494.091 544.329,495.581 545.096,496.66C546.883,499.172 549.081,502.156 549.081,502.156L546.779,501.644C546.779,501.644 547.013,502.506 547.111,502.93C548.975,510.941 546.762,517.358 553.567,518.927C560.054,520.423 565.533,524.406 571.48,527.105C575.467,528.914 575.954,517.011 567.022,502.179C563.635,496.556 561.834,493.428 555.45,485.03C553.1,481.939 548.312,475.597 544.04,468.806C539.602,461.748 535.691,454.217 534.035,450.038C529.843,439.461 525.812,425.963 525.812,425.963C525.812,425.963 524.841,429.329 524.268,431.647C523.327,435.449 524.427,449.727 523.83,450.261C523.131,450.886 522.82,447.322 522.516,445.555C522.254,444.025 522.009,439.656 522.009,439.656C522.009,439.656 517.05,457.586 516.942,463.268C516.844,468.475 518.949,474.607 523.695,477.257Z"
   style="fill-rule:evenodd;clip-rule:evenodd;stroke-linejoin:round;stroke-miterlimit:2;fill:#991851;fill-opacity:1"
   id="path2"
   transform="matrix(3.5609,0,0,3.5609,-1190.09,-1283.5)" />
</svg>
